<svg viewBox="0 0 1000 560" xmlns="http://www.w3.org/2000/svg" font-family="'Manrope','Segoe UI',system-ui,sans-serif" role="img" aria-label="Les bottom notes affichées en étoile ou en coque à côté, dans Handpan Studio">
<title>Les bottom notes affichées de deux façons dans Handpan Studio</title>
<desc>Deux schémas de handpan : à gauche les notes du dessous en étoile autour du pan (façon Notepan), à droite la coque du dessous présentée à côté (façon Yishama). Notes colorées selon le système ChromaKeys.</desc>
<rect x="0" y="0" width="1000" height="560" rx="24" fill="#0f1522"/>
<text x="500" y="50" text-anchor="middle" fill="#f4ebd9" font-size="30" font-weight="700">Les bottom notes : 2 façons de les afficher</text>
<text x="500" y="78" text-anchor="middle" fill="#f4ebd9" font-size="15" opacity="0.6">Sur ton handpan acoustique, dans Handpan Studio — couleurs ChromaKeys</text>
<line x1="500" y1="120" x2="500" y2="500" stroke="#f4ebd9" stroke-opacity="0.12" stroke-width="1.5" stroke-dasharray="4 6"/>
<g>
<circle cx="419" cy="269" r="11" fill="#e87a2c"/>
<circle cx="331" cy="181" r="11" fill="#4caf6d"/>
<circle cx="206" cy="192" r="11" fill="#4156b8"/>
<circle cx="134" cy="346" r="11" fill="#e2403a"/>
<circle cx="167" cy="415" r="11" fill="#e8c33a"/>
<circle cx="280" cy="468" r="11" fill="#3aa0d8"/>
<circle cx="393" cy="415" r="11" fill="#8e4fc4"/>
<circle cx="280" cy="320" r="100" fill="#7c828e"/>
<circle cx="280" cy="320" r="100" fill="none" stroke="#e8c33a" stroke-opacity="0.5" stroke-width="2"/>
<circle cx="350" cy="320" r="15" fill="#e2403a"/>
<circle cx="329" cy="271" r="15" fill="#e87a2c"/>
<circle cx="280" cy="250" r="15" fill="#e8c33a"/>
<circle cx="231" cy="271" r="15" fill="#4caf6d"/>
<circle cx="210" cy="320" r="15" fill="#3aa0d8"/>
<circle cx="231" cy="369" r="15" fill="#4156b8"/>
<circle cx="280" cy="390" r="15" fill="#8e4fc4"/>
<circle cx="329" cy="369" r="15" fill="#e2403a"/>
<circle cx="280" cy="320" r="30" fill="#e87a2c"/>
<circle cx="280" cy="320" r="30" fill="none" stroke="#0f1522" stroke-opacity="0.35" stroke-width="6"/>
<text x="280" y="520" text-anchor="middle" fill="#f4ebd9" font-size="19" font-weight="700">En étoile autour</text>
<text x="280" y="543" text-anchor="middle" fill="#f4ebd9" font-size="14" opacity="0.55">façon Notepan</text>
</g>
<g>
<circle cx="680" cy="325" r="92" fill="#7c828e"/>
<circle cx="680" cy="325" r="92" fill="none" stroke="#e8c33a" stroke-opacity="0.5" stroke-width="2"/>
<circle cx="744" cy="325" r="14" fill="#e2403a"/>
<circle cx="725" cy="280" r="14" fill="#e87a2c"/>
<circle cx="680" cy="261" r="14" fill="#e8c33a"/>
<circle cx="635" cy="280" r="14" fill="#4caf6d"/>
<circle cx="616" cy="325" r="14" fill="#3aa0d8"/>
<circle cx="635" cy="370" r="14" fill="#4156b8"/>
<circle cx="680" cy="389" r="14" fill="#8e4fc4"/>
<circle cx="725" cy="370" r="14" fill="#e2403a"/>
<circle cx="680" cy="325" r="28" fill="#e87a2c"/>
<circle cx="680" cy="325" r="28" fill="none" stroke="#0f1522" stroke-opacity="0.35" stroke-width="5"/>
<text x="812" y="333" text-anchor="middle" fill="#f4ebd9" font-size="26" opacity="0.5">+</text>
<circle cx="895" cy="325" r="52" fill="#6b7078"/>
<circle cx="895" cy="325" r="52" fill="none" stroke="#f4ebd9" stroke-opacity="0.25" stroke-width="1.5" stroke-dasharray="3 4"/>
<circle cx="929" cy="325" r="9" fill="#e87a2c"/>
<circle cx="912" cy="296" r="9" fill="#4caf6d"/>
<circle cx="878" cy="296" r="9" fill="#4156b8"/>
<circle cx="861" cy="325" r="9" fill="#e2403a"/>
<circle cx="878" cy="354" r="9" fill="#e8c33a"/>
<circle cx="912" cy="354" r="9" fill="#3aa0d8"/>
<text x="785" y="520" text-anchor="middle" fill="#f4ebd9" font-size="19" font-weight="700">Coque du dessous à côté</text>
<text x="785" y="543" text-anchor="middle" fill="#f4ebd9" font-size="14" opacity="0.55">façon Yishama</text>
</g>
</svg>
